[img]http://img151.imageshack.us/img151/1548/huntersi.jpg[/img]
[code]
The Hunters 2011 DVDRip Xvid AC3-26K

Imdb: 
http://www.imdb.com/title/tt1591504/

Plot:
Alice and her friends are approaching the end of the school year where their dead-end lives will end and the chance of a new life will begin

Sources:
OWN DVDR

Notes:
enjoy!
english subs included!!

Greetz:
Xtreme Encode|FYA|ILLUMANTI|CM8|RX|VISION|HDSCENE|NIGHTMAREZ|xTriLL|DTRG|CRYS|REMIXHD|BIDA
To all the people who have helped me :P you know who you are

Anything to offer email us @: 26k@hushmail.me

Video
ID                                       : 0
Format                                   : MPEG-4 Visual
Format profile                           : Advanced Simple@L5
Format settings, BVOP                    : 2
Format settings, QPel                    : No
Format settings, GMC                     : No warppoints
Format settings, Matrix                  : Default (H.263)
Codec ID                                 : XVID
Codec ID/Hint                            : XviD
Duration                                 : 1h 44mn
Bit rate                                 : 1 900 Kbps
Width                                    : 720 pixels
Height                                   : 304 pixels
Display aspect ratio                     : 2.35:1
Frame rate                               : 25.000 fps
Color space                              : YUV
Chroma subsampling                       : 4:2:0
Bit depth                                : 8 bits
Scan type                                : Progressive
Compression mode                         : Lossy
Bits/(Pixel*Frame)                       : 0.347
Stream size                              : 1.39 GiB (83%)
Writing library                          : XviD 63

Audio
ID                                       : 1
Format                                   : AC-3
Format/Info                              : Audio Coding 3
Mode extension                           : CM (complete main)
Codec ID                                 : 2000
Duration                                 : 1h 44mn
Bit rate mode                            : Constant
Bit rate                                 : 384 Kbps
Channel(s)                               : 6 channels
Channel positions                        : Front: L C R, Side: L R, LFE
Sampling rate                            : 48.0 KHz
Bit depth                                : 16 bits
Compression mode                         : Lossy
Stream size                              : 288 MiB (17%)
Alignment                                : Aligned on interleaves
Interleave, duration                     : 40 ms (1.00 video frame)
[/code]
Screens:
[img]http://img217.imageshack.us/img217/2072/vlcsnap2011122816h37m38.png[/img]
[img]http://img703.imageshack.us/img703/9223/vlcsnap2011122816h37m49.png[/img]
[img]http://img137.imageshack.us/img137/2544/vlcsnap2011122816h37m56.png[/img]
[img]http://img710.imageshack.us/img710/5046/vlcsnap2011122816h38m04.png[/img]
[img]http://img641.imageshack.us/img641/7383/vlcsnap2011122816h38m09.png[/img]
[img]http://img716.imageshack.us/img716/4116/vlcsnap2011122816h38m14.png[/img]


[img]http://img851.imageshack.us/img851/5503/26ks.jpg[/img]#
Thank you smallz for banner!